<?xml version="1.0" standalone="no"?>
<!DOCTYPE svg PUBLIC "-//W3C//DTD SVG 20010904//EN"
 "http://www.w3.org/TR/2001/REC-SVG-20010904/DTD/svg10.dtd">
<svg version="1.0" xmlns="http://www.w3.org/2000/svg"
 width="512.000000pt" height="512.000000pt" viewBox="0 0 512.000000 512.000000"
 preserveAspectRatio="xMidYMid meet">
<metadata>
Created by potrace 1.14, written by Peter Selinger 2001-2017
</metadata>
<g transform="translate(0.000000,512.000000) scale(0.100000,-0.100000)"
fill="#000000" stroke="none">
<path d="M2379 5116 c-2 -2 -35 -6 -74 -10 -38 -3 -97 -10 -130 -16 -33 -6
-76 -13 -95 -16 -115 -17 -351 -89 -515 -156 -174 -71 -440 -230 -605 -362
-153 -123 -363 -346 -482 -511 -93 -130 -248 -405 -273 -484 -4 -13 -14 -40
-23 -60 -9 -20 -17 -40 -18 -46 -2 -5 -12 -35 -23 -65 -20 -57 -58 -180 -65
-215 -3 -11 -12 -54 -21 -95 -9 -41 -18 -93 -21 -115 -3 -22 -7 -51 -9 -65
-20 -110 -27 -441 -13 -590 31 -333 156 -725 323 -1015 62 -108 207 -316 254
-367 9 -9 50 -54 91 -100 292 -325 701 -583 1137 -717 95 -30 253 -66 332 -77
20 -3 78 -11 130 -18 91 -12 459 -14 546 -2 22 3 58 8 80 11 952 127 1769 801
2078 1715 34 102 64 208 73 260 3 14 9 41 14 60 8 32 14 71 26 175 3 22 9 67
13 100 12 83 6 432 -9 535 -7 47 -13 94 -15 105 -14 111 -82 361 -134 497 -98
254 -255 521 -425 725 -87 104 -309 316 -411 394 -212 161 -464 299 -703 383
-146 52 -363 105 -497 121 -27 4 -61 9 -75 11 -28 6 -456 15 -461 10z m451
-221 c440 -56 866 -236 1195 -503 44 -36 81 -66 83 -68 2 -1 -2 -12 -8 -24 -6
-12 -37 -33 -68 -47 -89 -39 -114 -70 -96 -117 3 -9 17 -16 31 -16 19 0 28 -9
44 -45 l20 -44 49 19 50 20 1 -23 c0 -12 2 -35 4 -52 5 -37 -7 -45 -53 -34
-19 4 -57 5 -84 2 -45 -5 -51 -10 -91 -64 -42 -59 -76 -79 -134 -79 -24 0 -36
-14 -40 -45 -2 -11 -5 -30 -8 -41 -4 -17 1 -23 21 -28 21 -6 25 -11 20 -29 -3
-12 -6 -27 -6 -34 0 -7 -6 -10 -12 -8 -7 2 -30 7 -52 10 -21 3 -42 7 -46 10
-3 2 -22 0 -41 -5 -19 -5 -46 -11 -60 -14 -36 -8 -49 -55 -36 -135 9 -58 12
-63 46 -77 34 -14 166 -18 199 -6 7 2 21 21 30 41 10 20 41 66 70 103 l52 66
36 -10 c34 -9 39 -7 71 24 28 27 35 30 43 18 5 -8 10 -19 10 -25 0 -5 41 -37
90 -70 49 -33 90 -63 90 -66 0 -17 -33 -30 -65 -26 -35 5 -36 4 -22 -16 20
-30 62 -42 98 -27 25 11 29 18 29 50 0 22 6 40 13 43 18 7 -7 30 -73 65 -46
26 -58 38 -72 76 l-18 46 53 0 c49 -1 55 -4 111 -56 54 -50 60 -58 61 -100 2
-39 9 -52 46 -90 l44 -45 12 33 c6 18 12 43 12 55 1 24 32 58 60 66 13 3 18
-3 19 -27 4 -59 11 -78 42 -109 29 -29 35 -31 90 -29 33 2 60 1 60 -1 0 -3 13
-42 30 -88 16 -46 30 -90 30 -96 0 -10 -26 -13 -98 -13 l-99 0 -57 43 c-56 42
-60 43 -109 36 -29 -3 -55 -5 -59 -2 -5 2 -8 -14 -8 -36 0 -36 -3 -41 -24 -41
-13 0 -29 6 -35 14 -6 8 -61 26 -121 41 l-110 27 0 69 0 69 -27 -4 c-16 -3
-73 -8 -127 -12 -71 -4 -114 -13 -150 -30 -41 -18 -65 -22 -121 -20 -72 3
-112 -10 -176 -55 -23 -16 -27 -26 -27 -71 0 -29 0 -58 -1 -64 -1 -7 -59 -54
-129 -105 l-129 -93 12 -40 c10 -35 16 -41 38 -40 24 1 25 -1 20 -30 -3 -17
-14 -39 -26 -49 -17 -15 -20 -31 -22 -112 l-2 -95 114 -130 114 -130 50 0 c27
0 49 5 49 10 0 6 37 10 91 10 81 0 94 3 119 24 39 33 111 29 149 -8 21 -20 41
-27 86 -32 89 -8 86 -5 80 -76 -13 -139 -14 -132 73 -283 l81 -139 -45 -84
c-55 -102 -55 -148 -3 -196 32 -29 33 -30 34 -125 l1 -97 44 -59 c43 -58 45
-62 45 -135 l0 -75 38 -3 38 -3 -57 -66 c-301 -343 -704 -596 -1142 -717 -91
-25 -174 -43 -230 -51 -18 -2 -46 -6 -60 -10 -123 -27 -500 -27 -662 -1 -127
21 -168 29 -255 52 -887 231 -1562 956 -1726 1854 -26 145 -34 244 -34 430 0
244 24 416 90 645 27 93 85 255 91 255 3 0 4 -28 3 -62 -1 -34 2 -63 7 -65 5
-2 27 -14 49 -26 l40 -23 0 -89 c1 -84 3 -94 38 -155 50 -89 57 -97 98 -103
56 -8 57 25 4 110 -50 82 -52 87 -60 157 -7 55 -6 56 18 56 28 0 33 -9 42 -85
4 -40 19 -70 71 -146 l66 -97 -16 -31 c-16 -30 -16 -31 26 -94 l42 -64 91 -22
c105 -25 115 -26 115 -7 0 11 8 12 34 6 19 -4 38 -5 41 -2 3 3 4 -9 3 -27 l-3
-33 81 -22 c81 -21 82 -22 149 -98 37 -43 72 -79 79 -79 6 -1 22 -3 36 -5 14
-1 46 -4 72 -5 26 -1 51 -5 56 -8 5 -3 12 -38 16 -78 7 -71 7 -72 -21 -87 -15
-9 -43 -28 -61 -44 -30 -25 -34 -34 -36 -87 -2 -33 -6 -80 -10 -105 l-7 -45
91 -113 c56 -71 90 -122 90 -137 0 -29 24 -55 51 -55 26 0 166 -97 171 -119 2
-9 4 -101 3 -204 0 -187 0 -188 22 -193 27 -7 27 -6 8 -112 l-14 -84 40 -53
40 -53 -6 -95 -7 -94 52 -91 c47 -83 78 -118 172 -198 19 -16 37 -20 92 -20
61 1 70 3 77 22 6 18 0 28 -42 60 -48 38 -49 40 -44 79 3 22 8 58 12 80 l5 41
-36 -1 c-27 -1 -40 4 -51 22 -14 21 -13 24 15 49 40 36 40 70 0 79 -21 5 -30
13 -30 26 0 18 11 23 70 33 14 2 55 18 93 36 51 23 73 41 92 70 14 22 25 42
25 46 0 3 26 38 58 77 96 119 91 106 74 191 -15 70 -15 75 4 107 19 33 22 34
95 39 67 4 79 9 117 40 31 26 42 42 42 65 1 29 7 93 15 145 2 14 4 41 4 61 1
27 14 52 55 105 37 48 56 83 60 110 l6 40 -44 12 c-37 9 -49 19 -75 62 l-31
50 -82 1 c-113 1 -136 4 -188 27 -25 10 -57 22 -72 26 -20 4 -28 13 -29 29 -3
75 -9 99 -34 145 l-28 52 -74 0 -73 0 -44 68 c-30 47 -55 73 -81 85 -36 17
-37 17 -42 -3 -4 -16 -14 -20 -49 -21 -24 -1 -54 -2 -66 -3 -16 -1 -32 10 -50
35 -24 32 -35 37 -99 48 l-71 13 -30 -33 c-16 -19 -41 -49 -56 -68 -25 -31
-29 -33 -72 -27 -107 14 -126 18 -137 29 -11 10 -20 84 -22 179 -1 25 -5 27
-71 38 l-71 12 28 46 c26 45 32 87 15 104 -5 5 -38 -11 -73 -35 -75 -51 -120
-75 -134 -71 -5 1 -27 5 -48 9 -31 5 -41 13 -58 47 -18 36 -19 46 -9 87 6 25
25 72 43 104 28 54 37 62 106 96 l76 37 135 0 135 -1 0 -40 c0 -35 4 -42 40
-62 22 -12 45 -21 50 -19 10 3 9 101 -1 117 -8 13 73 91 136 131 72 45 90 64
90 94 0 41 134 172 224 219 41 22 72 43 69 48 -2 4 19 30 47 57 52 50 53 50
82 35 28 -14 31 -13 48 8 18 22 18 22 -21 30 -32 7 -39 12 -39 31 0 30 18 43
55 41 43 -3 43 -3 50 -25 5 -15 15 -20 40 -20 45 0 85 16 85 34 0 9 7 12 20 9
24 -6 28 -51 5 -59 -8 -4 -15 -16 -15 -29 0 -19 10 -27 62 -44 85 -29 98 -28
98 9 0 26 -6 32 -50 51 -35 15 -50 27 -50 40 0 11 7 19 15 19 39 0 63 22 67
62 3 37 1 41 -38 64 -49 29 -50 31 -53 104 -1 30 -4 56 -5 58 -2 1 -30 -9 -62
-25 -54 -25 -65 -28 -94 -24 -6 1 -8 20 -4 50 l6 50 -44 11 c-128 34 -116 33
-156 3 l-37 -28 1 -77 c2 -85 7 -79 -89 -108 -31 -10 -41 -20 -63 -66 -23 -48
-29 -55 -52 -52 -26 3 -27 5 -25 64 l1 61 -63 11 c-83 13 -110 32 -123 85 -6
23 -8 45 -4 49 21 21 195 117 238 132 63 21 62 21 69 -17 6 -28 10 -33 36 -32
21 0 29 5 29 18 0 11 10 20 30 24 33 6 39 17 15 27 -21 8 -19 36 3 37 39 1 56
9 86 38 22 21 45 31 81 36 28 3 62 8 76 11 19 4 35 -3 58 -21 17 -15 31 -30
31 -34 0 -4 -36 -25 -80 -46 -44 -22 -80 -43 -80 -46 0 -3 48 -17 107 -31
l108 -25 17 39 c16 37 19 38 66 38 43 0 50 3 63 28 7 15 15 30 17 33 1 4 -13
10 -33 13 -34 7 -35 9 -35 50 l0 42 -110 48 c-108 48 -110 48 -184 41 -48 -4
-91 -15 -118 -29 -42 -22 -43 -23 -43 -77 l0 -54 -40 4 c-44 3 -55 13 -55 52
0 19 10 35 35 53 19 15 35 31 35 36 0 12 -177 7 -188 -5 -6 -5 -13 -20 -17
-32 -5 -19 -3 -23 18 -23 32 0 36 -6 28 -38 -6 -21 -14 -27 -42 -28 -19 -1
-41 -2 -50 -3 -9 -1 -19 -10 -22 -21 -5 -19 -12 -21 -78 -18 l-73 3 -4 38 -3
37 53 0 c48 1 57 5 96 39 23 22 42 42 42 45 0 3 -8 10 -18 15 -15 8 -27 3 -55
-20 -30 -25 -44 -30 -82 -28 -52 3 -52 3 -88 52 -28 36 -29 37 -96 37 -66 0
-71 -2 -127 -46 -33 -25 -57 -48 -54 -52 3 -3 28 -5 57 -4 41 1 52 -2 56 -16
2 -9 -3 -25 -11 -34 -14 -17 -13 -18 14 -19 88 -2 106 -5 114 -19 16 -25 11
-37 -12 -34 -13 1 -46 3 -75 3 -42 1 -53 5 -58 20 -4 13 -22 23 -58 31 -29 7
-58 18 -66 24 -8 6 -44 13 -80 16 l-66 5 95 61 c341 220 715 346 1115 377 60
5 383 -1 435 -8z m-1510 -555 c0 -30 -32 -47 -85 -46 -46 1 -50 3 -53 27 -3
23 0 26 22 24 13 -2 27 2 29 9 3 7 20 10 46 8 31 -3 41 -8 41 -22z m0 -134 c0
-23 -3 -24 -67 -22 -49 1 -67 5 -71 16 -3 8 -1 12 2 8 4 -3 22 0 39 7 18 8 47
14 65 15 27 0 32 -4 32 -24z m3060 -166 c0 -3 -9 -20 -20 -38 l-20 -33 -82 3
c-102 4 -114 21 -41 59 48 24 48 24 51 79 l4 55 54 -60 c29 -33 54 -62 54 -65z
m-2878 -101 c-3 -39 -8 -44 -43 -52 -22 -6 -28 -2 -43 29 -19 41 -20 38 18 58
43 22 72 7 68 -35z m-926 -161 c-3 -13 -25 -43 -47 -68 l-40 -45 43 72 c42 72
56 85 44 41z m1128 17 c-4 -9 0 -15 8 -15 9 0 14 -9 13 -22 -1 -21 -7 -23 -71
-26 -80 -4 -127 9 -118 33 10 24 63 43 121 44 43 1 51 -2 47 -14z m86 -47 c0
-5 -9 -8 -20 -8 -13 0 -20 7 -20 20 0 18 2 19 20 8 11 -7 20 -16 20 -20z
m-178 -104 c-26 -35 -51 -64 -57 -64 -64 1 -16 124 51 132 53 7 54 -2 6 -68z
m176 46 c-4 -30 -25 -49 -55 -50 -19 0 -23 5 -23 33 0 42 0 42 45 42 32 0 35
-2 33 -25z m88 -2 c-21 -12 -42 4 -32 21 5 8 13 8 28 0 20 -11 20 -12 4 -21z
m-20 -39 c37 -10 44 -15 44 -36 0 -22 -3 -24 -42 -21 -39 3 -43 6 -49 36 -4
17 -5 32 -2 32 2 0 24 -5 49 -11z m-86 -51 c0 -35 -29 -58 -72 -58 -36 0 -39
2 -32 23 3 12 7 22 8 23 31 16 74 34 84 34 6 0 12 -10 12 -22z m2908 -23 c29
-59 28 -65 -8 -65 -31 0 -32 2 -32 65 0 61 10 61 40 0z"/>
<path d="M3700 4118 c-74 -20 -79 -65 -12 -110 55 -38 60 -58 17 -70 -27 -7
-30 -12 -32 -49 l-2 -42 80 6 c67 5 84 10 99 29 25 30 25 30 -9 50 -39 22 -79
86 -92 148 -6 27 -11 50 -12 49 -1 0 -18 -5 -37 -11z"/>
<path d="M3582 4012 c-24 -7 -61 -61 -68 -99 -3 -18 1 -24 21 -29 37 -9 135
58 135 92 0 36 -36 50 -88 36z"/>
<path d="M2380 3732 c-8 -3 -19 -11 -23 -18 -4 -8 -23 -14 -42 -14 -26 0 -33
-4 -31 -17 2 -9 10 -21 18 -26 20 -13 68 0 68 18 0 9 11 20 25 25 14 5 25 14
25 19 0 12 -22 19 -40 13z"/>
<path d="M2201 3681 c-17 -31 -13 -41 14 -41 28 0 35 29 11 49 -12 10 -17 8
-25 -8z"/>
</g>
</svg>
